<?xml version="1.0" standalone="no"?>
<svg width="788" height="800" title="polygons" version="1.1" viewBox="0 0 788 800" xmlns="http://www.w3.org/2000/svg" class="svg-paper"><!----> <g><desc>pwidth:788;pheight:800;pcolor:;seed:2009};sf:i+i*7;rf:10*sin(i/2);xf:400;yf:400;qt:3;sd:3;rn:1;minrd:125;maxrd:50;mina:147;maxa:360;cv:curveCardinalClosed;rd:false</desc> <path stroke="#000000" stroke-width="0.4mm" fill="none" d="M275.17,393.46C275.17,393.46,456.75,511.38,456.75,511.38C456.75,511.38,468.08,295.17,468.08,295.17C468.08,295.17,275.17,393.46,275.17,393.46"/><path stroke="#000000" stroke-width="0.4mm" fill="none" d="M267.07,404.16C267.07,404.16,470.07,513.04,470.07,513.04C470.07,513.04,462.86,282.79,462.86,282.79C462.86,282.79,267.07,404.16,267.07,404.16"/><path stroke="#000000" stroke-width="0.4mm" fill="none" d="M259.63,413.31C259.63,413.31,481.71,514.91,481.71,514.91C481.71,514.91,458.66,271.78,458.66,271.78C458.66,271.78,259.63,413.31,259.63,413.31"/></g></svg>